<?xml version="1.0" encoding="utf-8"?>
<!-- Generator: Adobe Illustrator 19.0.0, SVG Export Plug-In . SVG Version: 6.00 Build 0)  -->
<svg version="1.1" id="Layer_1" xmlns="http://www.w3.org/2000/svg" xmlns:xlink="http://www.w3.org/1999/xlink" x="0px" y="0px"
	 viewBox="-393 31 500 500" style="enable-background:new -393 31 500 500;" xml:space="preserve">
<style type="text/css">
	.st0{fill:#25358E;}
	.st1{fill:#C4CED4;}
	.st2{fill:#FFFFFF;}
</style>
<g id="XMLID_25_">
	<path id="XMLID_32_" class="st0" d="M-24.5,446.8l-3-8.1h-4v12.1h2.5v-9.6l3.5,9.6h2l3.5-9.6v9.6h2.5v-12.1h-4L-24.5,446.8z
		 M-43.8,440.7h3.5v10.1h2.5v-10.1h4v-2h-10.1v2H-43.8z"/>
	<path id="XMLID_33_" class="st1" d="M-143.5,209.9v38.5h12.1c5.6-0.5,11.6,0.5,17.2,1.5c0.5,0,1.5,0.5,2,1c1,3,1.5,6.6,1,9.6v14.2
		c-0.5,2-1,4.6-1.5,6.6c-1.5,4-4.6,7.1-8.1,9.1s-10.1,4.6-24.3,4.6s-23.8-3.5-30.9-10.6c-7.6-8.1-13.2-17.7-15.2-28.3
		c-3-12.7-4.6-25.8-4.6-39c-0.5-13.2,1.5-26.3,5.1-38.5c2.5-8.6,7.1-16.2,12.7-22.8c4.6-5.1,10.1-8.6,16.2-11.1
		c6.1-2,12.1-3.5,18.7-3.5c8.1,0,16.2,2,23.3,6.1c7.1,4,13.2,9.6,18.2,16.7c5.1,7.1,8.6,15.2,10.1,23.8l2,9.6h36.4l-2.5-92.6h-37
		l-2,10.1v0.5c-17.2-11.1-37-16.7-57.7-16.7c-20.8,0-50.1,5.1-68.8,15.7c-17.7,10.1-32.9,25.3-43,43.5
		c-10.6,18.2-15.7,39.5-15.7,60.7c0,19.7,4.6,38.5,13.2,56.2c9.1,18.7,23.3,34.4,40.5,45.6c18.7,12.1,50.6,17.7,73.9,17.7
		c8.1,0,16.2-0.5,24.3-1.5c4-0.5,9.6-2,16.7-3.5V381c0,9.6,0,17.2-0.5,22.8c0,4.1-1,8.1-2.5,11.6c-1,2-2,3.5-4.1,4.6
		c-3.5,1.5-7.6,2.5-11.6,2h-2c0.5-2.5,1-5.1,1-7.6c0-5.6-1.5-10.6-4.6-15.2c-3-4-7.1-7.6-11.6-10.1c-5.1-2.5-10.6-4-16.2-4
		c-9.6-0.5-18.7,3.5-24.8,11.1c-5.6,6.1-8.6,14.2-8.6,22.8c0,9.6,3.5,18.7,9.6,25.8c6.6,6.6,14.7,11.6,23.3,14.2
		c9.6,3,20.2,4.6,30.4,4.6c10.1,0,20.2-1,30.4-2.5c10.6-2.5,21.3-6.6,30.4-12.7c11.1-6.6,19.7-16.7,25.8-27.8
		c4-7.6,6.6-15.7,8.1-23.8c1-9.1,1.5-18.7,1.5-27.8V260.5c0-3,0-6.6,1-9.6c0.5-0.5,1-1,2-1c5.1-1.5,10.1-2,15.7-2h12.1v-38H-143.5z"
		/>
	<path id="XMLID_34_" class="st0" d="M-131.4,222v14.2c7.1-0.5,14.2,0.5,20.8,2.5c4.1,1,7.1,3.5,9.1,7.6c1.5,4.6,2.5,9.6,2,14.7
		v15.2c-0.5,3-1,6.6-2.5,9.6c-2.5,6.6-7.1,12.7-13.7,15.7c-9.6,4.6-19.7,7.1-30.4,6.1c-17.2,0-30.4-4.6-40-14.2
		s-16.2-21.3-18.7-34.4c-3-13.7-4.6-27.8-4.6-41.5c-0.5-14.7,1.5-28.9,6.1-42.5c3-10.1,8.6-19.2,15.7-27.3
		c5.6-6.1,13.2-11.1,20.8-14.2c8.1-3.5,15.7-4.6,23.8-4.6c10.1,0,20.2,2.5,29.4,7.6c8.6,5.1,16.2,11.6,22.3,20.2
		c6.1,8.6,10.1,18.2,12.1,28.3H-65l-2-67.8h-15.2c-1,6.1-3,12.1-5.6,18.2c-17.7-15.7-40.5-24.3-63.8-24.3
		c-19.2,0-46.6,4.6-62.8,14.2c-16.2,8.6-29.9,22.3-39,38.5c-9.6,16.7-14.7,35.4-14.2,54.7c0,17.7,4.1,34.9,12.1,50.6
		c8.1,16.7,20.2,30.4,35.9,40.5c16.2,10.6,45.1,15.7,67.3,15.7c7.6,0,14.7-0.5,21.8-1.5c6.1-1,15.7-3,27.8-5.6l3.5-0.5v63.8
		c0,10.1,0,17.7-0.5,23.8c-0.5,5.1-1.5,10.6-3.5,15.2s-5.1,8.1-9.1,10.6c-5.6,2.5-11.6,4-17.7,3.5c-10.1,0-15.7-3-15.7-8.6
		c0-2,0.5-3.5,1-5.6c0.5-2,1-3.5,1-5.6c0-3-1-6.1-2.5-8.6c-2-2.5-4-4.6-7.1-6.1c-3-1.5-6.6-2.5-10.1-2.5c-5.6,0-11.1,2-15.2,6.6
		c-3.5,4-5.6,9.6-5.6,14.7c0,6.6,2,12.7,6.6,17.2c5.1,5.1,11.1,9.1,18.2,11.1c8.6,2.5,17.7,4,26.3,3.5c9.6,0,18.7-1,28.3-2.5
		c9.1-2,18.2-5.6,25.8-10.6c9.1-5.6,16.7-13.7,21.8-23.3c3.5-6.1,5.6-13.2,7.1-20.2c1-8.6,1.5-17.2,1.5-26.3V260.5
		c-0.5-4.6,0-9.6,1.5-14.2c1.5-3.5,5.1-6.6,9.1-7.6c6.6-2,13.2-3,19.7-2.5V222H-131.4z"/>
	<path id="XMLID_38_" class="st2" d="M-198.2,302.5c-2.5-1.5-5.6-3-8.1-4.6c-13.7-8.6-24.3-20.8-31.4-34.9
		c-7.1-14.2-10.6-29.4-10.6-45.1c0-16.7,4-33.4,12.7-47.6c8.1-14.2,19.7-25.8,33.4-33.9c1.5-1,3.5-2,5.6-3l-3.5,3.5
		c-8.6,9.1-15.2,20.2-18.7,32.4c-4.6,15.2-7.1,30.9-6.6,47.1c0,15.2,1.5,29.9,5.1,44.5C-216.9,276.7-209.3,290.9-198.2,302.5
		 M-86.8,235.7c1,1.5,2,3,2.5,4.6c2.5,6.6,3.5,13.2,3.5,20.2v20.2c-2.5,9.1-8.6,24.8-20.8,28.9l20.8-7.6v78.5
		c0,10.1,0,18.7-0.5,24.3c-0.5,6.6-2,13.2-4.6,19.2c6.1-4,11.1-10.1,14.7-16.7c2.5-5.1,4.6-10.1,5.6-15.7c1-8.1,1.5-16.2,1.5-24.3
		V260.5c0-6.6,1-13.2,3-19.2c1-2,2-3.5,3-5.6H-86.8z M-155.7,435.2c-5.1-1.5-9.1-4-12.7-7.6c-2.5-2.5-3.5-5.6-3.5-9.1
		c0-2.5,1-5.1,2.5-7.1c1.5-1.5,3.5-2.5,5.6-2c1.5,0,3,0.5,4.6,1c1,0.5,2,1.5,2.5,2s0.5,1,0.5,1.5v1.5c-1,3-2,6.1-2,9.1
		C-157.7,428.6-157.2,432.1-155.7,435.2"/>
</g>
</svg>
